<?xml version="1.0" encoding="UTF-8"?>
<svg width="180px" height="37px" viewBox="0 0 180 37" version="1.1" xmlns="http://www.w3.org/2000/svg" xmlns:xlink="http://www.w3.org/1999/xlink">
    <!-- Generator: Sketch 51.3 (57544) - http://www.bohemiancoding.com/sketch -->
    <title>logo_octree@1x</title>
    <desc>Created with Sketch.</desc>
    <defs></defs>
    <g id="STYLEGUIDE-TEST-RELEASE-1" stroke="none" stroke-width="1" fill="none" fill-rule="evenodd">
        <g id="Logo-octree" transform="translate(-34.000000, -30.000000)">
            <g id="logo-octree" transform="translate(34.000000, 30.000000)">
                <g>
                    <g id="Group" fill="#8E989C">
                        <path d="M42.0595549,21.9363554 C42.0595549,28.0272384 45.8895514,31.2943649 50.2195879,31.2943649 C55.2154334,31.2943649 57.0470917,27.9173045 57.6582516,25.8131152 L62.2651773,27.8055536 C60.9882082,31.6259836 57.1582117,36.1123769 50.2195879,36.1123769 C42.4484749,36.1123769 36.7303494,30.0196768 36.7303494,21.9363554 C36.7303494,13.6313491 42.5586841,7.81757211 50.1640279,7.81757211 C57.2702425,7.81757211 60.9326482,12.2467271 62.0429373,16.2879335 L57.3248917,18.2830975 C56.6581717,15.6792086 54.7153935,12.6346756 50.1640279,12.6346756 C45.9451114,12.6346756 42.0595549,15.7355384 42.0595549,21.9363554" id="Fill-442"></path>
                        <path d="M111.397064,13.9076375 C110.619224,13.7977036 109.842295,13.7413738 109.121837,13.7413738 C104.73533,13.7413738 101.794293,16.067248 101.794293,21.9364462 L101.794293,35.2811495 L96.5771184,35.2811495 L96.5771184,8.64716419 L101.682262,8.64716419 L101.682262,13.2989126 C103.626862,9.2013764 106.956819,8.20561151 109.676526,8.20561151 C110.396984,8.20561151 111.119264,8.31554541 111.397064,8.37096663 L111.397064,13.9076375 L111.397064,13.9076375 Z" id="Fill-443"></path>
                        <path d="M22.3986938,21.9363554 C22.3986938,15.7909596 18.5122265,12.468412 14.0719809,12.468412 C9.63082444,12.468412 5.74526797,15.7909596 5.74526797,21.9363554 C5.74526797,28.1389894 9.63082444,31.4606285 14.0719809,31.4606285 C18.5122265,31.4606285 22.3986938,28.1389894 22.3986938,21.9363554 M27.7278994,21.9363554 C27.7278994,30.0769151 22.0653338,36.1123769 14.0719809,36.1123769 C6.07862795,36.1123769 0.41697322,30.0769151 0.41697322,21.9363554 C0.41697322,13.853034 6.07862795,7.81757211 14.0719809,7.81757211 C22.0653338,7.81757211 27.7278994,13.853034 27.7278994,21.9363554" id="Fill-444"></path>
                        <path d="M80.3282786,8.64716419 L86.1001425,8.64716419 L86.1001425,13.3543338 L80.3282786,13.3543338 L80.3282786,27.1969195 C80.3282786,29.6345447 81.3274477,30.8501774 84.0471551,30.8501774 C84.7129642,30.8501774 85.6574842,30.7402435 86.1001425,30.6303096 L86.1001425,35.0576475 C85.6574842,35.2248197 84.3249551,35.5582556 82.5488568,35.5582556 C77.9965804,35.5582556 75.110193,32.7899201 75.110193,27.9728166 L75.110193,13.3543338 L70.0032275,13.3543338 L70.0032275,8.64716419 L71.4468765,8.64716419 C74.3323531,8.64716419 75.554673,6.87641074 75.554673,4.54962799 L75.554673,0.231315458 L80.3282786,0.231315458 L80.3282786,8.64716419 L80.3282786,8.64716419 Z" id="Fill-445"></path>
                        <path d="M173.782834,19.2231686 C173.672625,15.403647 171.175158,12.4136267 166.45529,12.4136267 C162.070605,12.4136267 159.407368,15.7915956 159.183306,19.2231686 L173.782834,19.2231686 L173.782834,19.2231686 Z M179.05739,27.6953471 C177.558181,32.4016082 173.282794,36.1121044 167.067361,36.1121044 C159.905586,36.1121044 153.632772,30.9052352 153.632772,21.8815701 C153.632772,13.5202341 159.684257,7.81729954 166.400641,7.81729954 C174.615323,7.81729954 179.22316,13.4648128 179.22316,21.7707277 C179.22316,22.4357823 179.1676,23.0999284 179.11295,23.4324558 L159.017537,23.4324558 C159.127747,28.1941381 162.569734,31.5157772 167.067361,31.5157772 C171.395576,31.5157772 173.560594,29.1344818 174.560674,26.14537 L179.05739,27.6953471 L179.05739,27.6953471 Z" id="Fill-446"></path>
                        <path d="M139.162854,19.2231686 C139.050823,15.403647 136.553356,12.4136267 131.83531,12.4136267 C127.448803,12.4136267 124.785566,15.7915956 124.563326,19.2231686 L139.162854,19.2231686 L139.162854,19.2231686 Z M144.435589,27.6953471 C142.936379,32.4016082 138.662814,36.1121044 132.445559,36.1121044 C125.285606,36.1121044 119.012791,30.9052352 119.012791,21.8815701 C119.012791,13.5202341 125.063366,7.81729954 131.778839,7.81729954 C139.993521,7.81729954 144.603179,13.4648128 144.603179,21.7707277 C144.603179,22.4357823 144.545798,23.0999284 144.491149,23.4324558 L124.397557,23.4324558 C124.507766,28.1941381 127.949754,31.5157772 132.445559,31.5157772 C136.775596,31.5157772 138.940614,29.1344818 139.938872,26.14537 L144.435589,27.6953471 L144.435589,27.6953471 Z" id="Fill-447"></path>
                    </g>
                    <g id="Group-3" transform="translate(36.432785, 7.268357)">
                        <path d="M20.0068815,1.99280175 C18.3182219,1.10151949 16.2388207,0.549124363 13.7313343,0.549124363 C10.1836919,0.549124363 6.98944756,1.84561752 4.62678148,4.03793567 C4.29159986,4.3522921 4.27338347,4.87833943 4.58761624,5.21268385 C4.75156377,5.38621587 4.97289293,5.47525324 5.19513292,5.47525324 C5.39915651,5.47525324 5.60409093,5.40075259 5.765306,5.25084273 C7.89298062,3.26113003 10.6472991,2.20994391 13.7313343,2.20994391 C15.7988949,2.20994391 17.6433046,2.62696589 19.211736,3.45101585 C19.3356074,3.51733961 19.4676763,3.54823012 19.5997451,3.54823012 C19.898494,3.54823012 20.1872238,3.38560064 20.3365982,3.10395181 C20.5506408,2.69783237 20.4140179,2.20630973 20.0068815,1.99280175" id="Fill-448" fill="#1A1918"></path>
                        <path d="M25.6101527,9.01975834 C25.3897343,8.21751344 25.068215,7.39891475 24.639219,6.60302967 L24.639219,6.60121258 C24.4880229,6.32228939 24.2011147,6.16420262 23.9041875,6.16420262 C23.7712079,6.16420262 23.6364066,6.19691023 23.5116243,6.26414253 C23.109042,6.4794676 22.9569351,6.97553296 23.1673345,7.37801822 C23.2930276,7.61060564 23.4132558,7.85954687 23.5198217,8.09940264 L21.8703273,8.79716491 C21.7792454,8.59728509 21.6817877,8.40376509 21.5797759,8.21387927 C21.564292,8.18571438 21.5497188,8.15664095 21.5342349,8.12756753 C21.3830389,7.85318705 21.0979523,7.69782593 20.8046684,7.69782593 C20.6689563,7.69782593 20.5314225,7.73053353 20.4029969,7.80049147 C20.0004147,8.02217635 19.8537727,8.52732716 20.0751019,8.92799533 C20.1188212,9.00794726 20.1598081,9.08335646 20.1980625,9.16785111 C20.5569255,9.89196116 20.7837195,10.5788209 20.8921071,11.0140138 L25.6101527,9.01975834 L25.6101527,9.01975834 Z" id="Fill-453" fill="#DD3B41"></path>
                        <path d="M5.7077422,13.1659017 C6.1677061,9.01930406 8.5403912,6.52444056 11.4422625,5.68585389 C11.8849208,5.55774909 12.1390395,5.09620843 12.0106139,4.65647284 C11.9049589,4.293055 11.5725097,4.05774194 11.2109143,4.05774194 C11.1344055,4.05774194 11.0569858,4.06773593 10.9795661,4.09044955 C7.15594539,5.19614834 4.56921768,8.49779946 4.0591587,12.9233203 C4.00633116,13.3794097 4.33422622,13.7909804 4.79145767,13.8436759 C4.82333635,13.8473101 4.85521504,13.8491272 4.88709373,13.8491272 C5.30424911,13.8491272 5.65855794,13.5892835 5.7077422,13.1659017" id="Fill-454" fill="#009D49"></path>
                        <path d="M13.7868033,25.6868275 C14.2413023,25.6868275 14.6885147,25.6622968 15.1175107,25.6123269 C15.5747422,25.5605398 15.9026372,25.1489691 15.8507205,24.6946968 C15.8024471,24.2685894 15.4417625,23.9569586 15.0236963,23.9569586 C14.9936393,23.9569586 14.9617606,23.9587757 14.9298819,23.9642269 C14.5682865,24.0042029 14.1875639,24.026008 13.7868033,24.026008 C10.8257287,24.026008 8.09782395,22.4978359 6.66965879,19.5823163 L6.67785617,19.6004872 C6.53303585,19.3079358 6.23701948,19.1371294 5.93007327,19.1371294 C5.80711262,19.1371294 5.68141951,19.1634772 5.56301296,19.2225326 C5.15041168,19.4242295 4.98099923,19.9230205 5.18320118,20.3336827 C6.83542796,23.6853037 10.051532,25.6868275 13.7868033,25.6868275" id="Fill-455" fill="#1A1918"></path>
                        <path d="M21.2254671,18.5443949 C20.9567753,19.4711104 20.6133963,20.0889208 20.6133963,20.0889208 L23.6628203,21.4099446 C23.0972014,22.5111007 22.326648,23.5304877 21.4167392,24.3736171 C21.0788251,24.6843394 21.0587871,25.2094782 21.372109,25.5465482 C21.5360565,25.7237144 21.7582965,25.8127518 21.983269,25.8127518 C22.1845601,25.8127518 22.3885837,25.7400682 22.5479771,25.5910669 C22.548888,25.5910669 22.548888,25.5910669 22.548888,25.5892498 C22.5525312,25.5892498 22.5552637,25.5856156 22.5579962,25.5819815 C22.5598178,25.5819815 22.5607286,25.5801644 22.5607286,25.5783473 C22.5625503,25.5783473 22.5625503,25.5783473 22.5625503,25.5765302 C22.5643719,25.5765302 22.5652827,25.5765302 22.5661935,25.5747131 C22.5671043,25.5747131 22.5671043,25.572896 22.5680152,25.572896 C22.568926,25.5710789 22.5707476,25.5710789 22.5716584,25.5692618 C22.5725693,25.5692618 22.5725693,25.5692618 22.5734801,25.5674448 C22.5743909,25.5674448 22.5743909,25.5665362 22.5762125,25.5665362 L22.5780342,25.5647191 C22.5798558,25.562902 22.5798558,25.562902 22.5807666,25.5610849 C22.5816775,25.5610849 22.5825883,25.5592679 22.5825883,25.5592679 C22.5844099,25.5574508 22.5853207,25.5574508 22.5853207,25.5556337 L22.588964,25.5556337 C22.5898748,25.5538166 22.5907857,25.5519995 22.5916965,25.5519995 L22.5916965,25.5501824 C22.5962506,25.5465482 22.5998939,25.5429141 22.604448,25.5392799 L22.6053588,25.5374628 C22.6071804,25.5356457 22.6080912,25.5356457 22.6090021,25.5338286 L22.6108237,25.5338286 C24.2120446,24.0329129 25.2695061,22.2203664 25.8323927,20.5368332 L21.2254671,18.5443949 L21.2254671,18.5443949 Z" id="Fill-456" fill="#1A1918"></path>
                        <path d="M16.5183513,26.9165426 C16.4637021,26.9165426 16.4081421,26.9219939 16.3516713,26.9347135 C15.5392202,27.097343 14.676674,27.1809291 13.7868033,27.1809291 C11.6226959,27.1809291 9.6280009,26.6630587 7.85645675,25.6373118 C7.72438791,25.5609941 7.58138923,25.5237438 7.43930137,25.5237438 C7.15239319,25.5237438 6.87277157,25.6727451 6.71884305,25.9371316 C6.48749487,26.3341656 6.62320699,26.842042 7.01941353,27.0728123 C8.9776757,28.206676 11.2756736,28.8435658 13.7868033,28.8435658 C14.8205835,28.8435658 15.7860523,28.7445344 16.6841205,28.5619169 C17.1340653,28.4692454 17.4255276,28.0313269 17.3335348,27.5815973 C17.2533827,27.1881975 16.9063604,26.9165426 16.5183513,26.9165426" id="Fill-457" fill="#1A1918"></path>
                        <path d="M1.00417863,19.4086025 C1.11620944,19.7638435 1.4441045,19.9900711 1.79841333,19.9900711 C1.88038709,19.9900711 1.9641825,19.97826 2.04706708,19.9519122 C2.48517132,19.8156305 2.7301818,19.3504557 2.59355885,18.9116286 C2.17549265,17.5751595 1.96327168,16.1469274 1.96327168,14.6678168 C1.96327168,13.0642355 2.20281724,11.5333379 2.67735426,10.120551 C2.8230854,9.68535812 2.58809394,9.21564055 2.15090052,9.06936487 C2.06346184,9.04029144 1.97511233,9.02575473 1.88767365,9.02575473 C1.53974056,9.02575473 1.21548878,9.24471398 1.09890387,9.59177802 C0.578825865,11.139938 0.298293424,12.8443677 0.298293424,14.6678168 C0.298293424,16.3422645 0.546947179,17.9431201 1.00417863,19.4086025" id="Fill-458" fill="#0079B3"></path>
                    </g>
                    <g id="Group-2" transform="translate(0.000000, 7.268357)">
                        <path d="M14.0723452,0.549215217 C10.4336209,0.549215217 7.27125515,1.80664096 4.91223235,3.93081826 C4.57340745,4.23972343 4.54699368,4.76304512 4.85485071,5.10284081 C5.01970906,5.28364119 5.24559233,5.37631274 5.47329723,5.37631274 C5.67185591,5.37631274 5.87223622,5.30453771 6.03162965,5.16098766 C8.17114493,3.23033036 10.9518772,2.21003477 14.0723452,2.21003477 C14.5313983,2.21003477 14.9048343,1.83844002 14.9048343,1.37871645 C14.9048343,0.920809963 14.5313983,0.549215217 14.0723452,0.549215217" id="Fill-461" fill="#009D49"></path>
                        <path d="M1.28972057,9.42260702 C0.721369135,11.0270968 0.417155384,12.792399 0.417155384,14.6676351 C0.417155384,16.2830274 0.63939537,17.8148336 1.05928321,19.2339803 C1.16858157,19.5910383 1.49920909,19.8281684 1.85716119,19.8281684 C1.93458086,19.8281684 2.01382217,19.8163574 2.09306347,19.7927352 C2.53390017,19.6628133 2.7861972,19.2012727 2.65595,18.7606285 C2.2752274,17.4741294 2.08213364,16.0976843 2.08213364,14.6676351 C2.08213364,13.0122668 2.34353887,11.4341248 2.85997359,9.97500214 C3.01299129,9.5425349 2.78528638,9.06827462 2.35173625,8.91563912 C2.25974346,8.88293152 2.16592904,8.86748626 2.07484708,8.86748626 C1.73146809,8.86748626 1.40994876,9.08099424 1.28972057,9.42260702" id="Fill-462" fill="#DD3B41"></path>
                        <path d="M26.1562801,7.7838651 C24.6343005,4.76113718 22.082184,2.47342185 18.8533285,1.33955817 C18.7631573,1.30775911 18.6702537,1.2932224 18.5791717,1.2932224 C18.2357928,1.2932224 17.9142734,1.50763893 17.7940452,1.84834316 C17.6410275,2.28081039 17.8687324,2.75597922 18.3022826,2.90770617 C21.0702634,3.87984891 23.3309177,5.87501287 24.6670901,8.52705459 C24.813732,8.81778887 25.1070159,8.98496108 25.4121405,8.98496108 C25.5378336,8.98496108 25.6653484,8.95679619 25.7855765,8.89683225 C26.1945345,8.69059262 26.3612145,8.19361872 26.1562801,7.7838651" id="Fill-463" fill="#1A1918"></path>
                        <path d="M18.0224788,4.33866394 C16.7901399,3.80807388 15.461254,3.53823613 14.0722541,3.53823613 C11.2951651,3.53823613 8.7630866,4.62122131 6.94144737,6.5864033 C6.62903624,6.92347335 6.64998509,7.44861214 6.98789917,7.76024294 C7.1472926,7.90833571 7.35040537,7.98101928 7.55260733,7.98101928 C7.77575813,7.98101928 7.99890894,7.89107337 8.16285647,7.71572426 L8.15010499,7.72844388 C9.68483605,6.0648987 11.8061349,5.19996423 14.0722541,5.19996423 C15.244479,5.19996423 16.3775386,5.43073456 17.4113188,5.88500686 L17.3639562,5.86501888 C17.4714329,5.90953757 17.5825529,5.93225118 17.6918513,5.93225118 C18.0142814,5.93225118 18.3203168,5.74509099 18.4569398,5.43073456 C18.6391037,5.00916986 18.4441883,4.52037286 18.0224788,4.33866394" id="Fill-465" fill="#0079B3"></path>
                        <path d="M16.4792771,26.9804133 C16.4328253,26.9804133 16.3845519,26.9840475 16.3371893,26.993133 C15.6058011,27.1185121 14.8434451,27.1812017 14.0719809,27.1812017 C11.7612315,27.1812017 9.65814903,26.6306237 7.82193669,25.5449128 C7.68895702,25.4649609 7.54231507,25.4277106 7.39840557,25.4277106 C7.11422985,25.4277106 6.83734068,25.5730777 6.68159053,25.83383 C6.44750989,26.2281384 6.57593545,26.7341977 6.96849871,26.9695108 L6.96758789,26.9695108 C6.96849871,26.9713279 6.97032035,26.9713279 6.97214199,26.973145 L6.97214199,26.973145 L6.97214199,26.973145 C8.99689399,28.1715153 11.4051011,28.8438383 14.0719809,28.8438383 C14.950011,28.8438383 15.7998057,28.7711548 16.6168109,28.6285133 L16.621365,28.6285133 C17.0740423,28.551287 17.3773453,28.1215454 17.2990148,27.6709072 C17.2288817,27.2656963 16.8773053,26.9804133 16.4792771,26.9804133" id="Fill-466" fill="#1A1918"></path>
                        <path d="M26.8104308,16.5347851 C26.7621573,16.5266082 26.7147947,16.522974 26.6683429,16.522974 C26.2703147,16.522974 25.9187384,16.8091656 25.8486053,17.2116508 C25.3175974,20.2870743 23.8484454,22.8637068 21.5996318,24.6608081 C21.2407688,24.9488167 21.1833872,25.4721384 21.4702954,25.8282879 C21.6351537,26.0345275 21.8765209,26.1408273 22.1206206,26.1408273 C22.3036953,26.1408273 22.4867701,26.0808633 22.6397878,25.9582098 L22.6416094,25.9582098 C25.1600256,23.9421493 26.885118,20.993922 27.4889914,17.4960253 L27.4899022,17.4951167 L27.4899022,17.490574 C27.4917238,17.4823971 27.4935455,17.4760373 27.4944563,17.4678604 L27.4917238,17.4733117 C27.556392,17.0290334 27.2567324,16.6120114 26.8104308,16.5347851" id="Fill-467" fill="#1A1918"></path>
                        <path d="M11.949589,25.6317697 C12.0078815,25.6444893 12.0661739,25.6508492 12.1235556,25.6508492 C12.5079214,25.6508492 12.8540329,25.383737 12.9369175,24.9930629 C13.0325535,24.5460589 12.7465562,24.1054148 12.2975221,24.0082005 L12.2820382,24.0045663 C9.22441673,23.3495057 6.6968923,20.9891068 5.96186087,17.0869076 L5.96186087,17.0859991 C5.88717366,16.687148 5.53741893,16.4091334 5.14394486,16.4091334 C5.09384978,16.4091334 5.04193306,16.4136761 4.98910552,16.4236701 C4.53733899,16.5081647 4.2404118,16.9424491 4.32511802,17.3930872 C5.13847994,21.7132168 7.98843451,24.7922745 11.949589,25.6317697" id="Fill-468" fill="#1A1918"></path>
                        <path d="M21.7266911,21.5362323 C22.0117776,21.5362323 22.2895776,21.3890481 22.4444169,21.1264787 C23.5191841,19.3093895 24.0638542,17.1370593 24.0638542,14.6676351 C24.0638542,13.0013642 23.8060923,11.4504786 23.2978549,10.0594968 C23.1748943,9.72242674 22.8561074,9.51255293 22.5163717,9.51255293 C22.4216465,9.51255293 22.3250996,9.52799819 22.2312852,9.56252289 C21.7986458,9.7197011 21.5764059,10.1975956 21.7330668,10.6273372 L21.7330668,10.6282457 C22.1602412,11.7957255 22.398876,13.1467314 22.398876,14.6676351 C22.398876,16.9317282 21.8815304,18.8105985 21.0089652,20.2842578 C20.7767062,20.6794747 20.9087751,21.1864426 21.3040708,21.4190301 C21.4370505,21.4971649 21.5827816,21.5362323 21.7266911,21.5362323" id="Fill-469" fill="#1A1918"></path>
                    </g>
                    <g id="Group-4" transform="translate(69.959996, 0.000000)">
                        <path d="M5.53082892,5.43355105 C5.46160663,5.88691481 5.77401775,6.3102966 6.22851674,6.37934599 C6.27132526,6.3857058 6.31231215,6.38933998 6.35420985,6.38933998 C6.75952458,6.38933998 7.11383341,6.09406298 7.17667996,5.68158373 C7.23223996,5.32089151 7.25956455,4.94021132 7.25956455,4.54953714 L7.25956455,1.89386124 L10.3681919,1.89386124 L10.3681919,0.231224604 L5.59458629,0.231224604 L5.59458629,4.54953714 C5.59458629,4.85389958 5.57363744,5.14917658 5.53082892,5.43173396" id="Fill-449" fill="#1A1918"></path>
                        <path d="M0.0432318197,8.64716419 L0.0432318197,13.3543338 L5.14928658,13.3543338 C5.61016131,13.3543338 5.98268653,12.9818305 5.98268653,12.523924 C5.98268653,12.065109 5.61016131,11.6944228 5.14928658,11.6944228 L1.7091209,11.6944228 L1.7091209,8.64716419 L0.0432318197,8.64716419 L0.0432318197,8.64716419 Z" id="Fill-450" fill="#0079B3"></path>
                        <path d="M7.81944536,31.7662629 C7.15363622,30.7941202 6.81572215,29.5185236 6.81572215,27.9721806 L6.81572215,22.9860878 C6.81572215,22.5272728 6.44228611,22.1547695 5.9823222,22.1547695 C5.52326911,22.1547695 5.14983307,22.5272728 5.14983307,22.9860878 L5.14983307,27.9721806 C5.14983307,29.9082892 5.5924914,31.4773457 6.44501856,32.7047895 C6.60623364,32.939194 6.86763887,33.0672988 7.13268737,33.0672988 C7.29481326,33.0672988 7.4587608,33.020963 7.60267029,32.9210231 C7.98157125,32.6620879 8.07993977,32.1460346 7.81944536,31.7662629" id="Fill-470" fill="#DD3B41"></path>
                        <path d="M16.1405112,30.6305822 L16.1405112,30.6305822 C15.778005,30.7214366 15.0821388,30.8095655 14.4764438,30.8395474 L14.4764438,33.7523414 C13.9745822,33.8313848 13.3315435,33.8958915 12.5883147,33.8958915 C12.4735514,33.8958915 12.2267193,33.8904402 12.2167003,33.8904402 C11.7703987,33.8904402 11.4006059,34.242047 11.3842112,34.6890509 C11.3678164,35.1469574 11.6966223,35.5321803 12.1556754,35.5494427 C12.2986741,35.554894 12.4425836,35.5585281 12.5883147,35.5585281 C14.364413,35.5585281 15.696942,35.2250923 16.1405112,35.0579201 L16.1405112,30.6305822 L16.1405112,30.6305822 Z" id="Fill-471" fill="#1A1918"></path>
                        <path d="M9.53524735,13.1934306 C9.07528345,13.1934306 8.70184741,13.5650253 8.70184741,14.0238403 L8.70184741,23.7870607 C8.70184741,24.2458758 9.07528345,24.6183791 9.53524735,24.6183791 C9.99521126,24.6183791 10.3686473,24.2458758 10.3686473,23.7870607 L10.3686473,14.0238403 C10.3686473,13.5650253 9.99521126,13.1934306 9.53524735,13.1934306" id="Fill-472" fill="#009D49"></path>
                        <path d="M10.4465224,8.64716419 C9.98655847,8.64716419 9.61403325,9.01966748 9.61403325,9.47848251 C9.61403325,9.93729754 9.98655847,10.3098008 10.4465224,10.3098008 L14.4759884,10.3098008 L14.4759884,13.3543338 L16.1400558,13.3543338 L16.1400558,8.64716419 L10.4465224,8.64716419 L10.4465224,8.64716419 Z" id="Fill-473" fill="#1A1918"></path>
                    </g>
                    <g id="Group-5" transform="translate(96.546879, 8.176901)">
                        <path d="M0.860542372,10.8581984 C0.401489286,10.8581984 0.0298748834,11.2297931 0.0298748834,11.6886081 L0.0298748834,21.6562511 C0.0298748834,22.1150661 0.401489286,22.4857523 0.860542372,22.4857523 C1.3214171,22.4857523 1.6930315,22.1150661 1.6930315,21.6562511 L1.6930315,11.6886081 C1.6930315,11.2297931 1.3214171,10.8581984 0.860542372,10.8581984" id="Fill-451" fill="#009D49"></path>
                        <path d="M4.4131032,21.4235728 C3.95405011,21.4235728 3.58243571,21.7951675 3.58243571,22.253074 L3.58243571,25.4438827 L0.0293283916,25.4438827 L0.0293283916,27.1047022 L5.24741396,27.1047022 L5.24741396,22.253074 C5.24741396,21.7951675 4.87397792,21.4235728 4.4131032,21.4235728" id="Fill-452" fill="#0079B3"></path>
                        <path d="M13.1299202,0.0283465919 L13.1189903,0.0283465919 L13.1117038,0.0283465919 L13.1035064,0.0283465919 L13.1016847,0.0283465919 L13.0998631,0.0283465919 L13.0980415,0.0283465919 L13.0962198,0.0283465919 L13.0925766,0.0283465919 L13.0907549,0.0283465919 L13.0889333,0.0283465919 L13.0871116,0.0283465919 C10.3919964,0.0392491272 7.10667004,1.0386482 5.16935672,5.05168975 C4.96988723,5.46507754 5.14385377,5.9611429 5.5582767,6.16011417 C5.67395079,6.21644394 5.79873308,6.24188319 5.91987209,6.24188319 C6.00548913,6.24188319 6.09019535,6.22825502 6.17216912,6.20372431 C4.45254169,7.89634292 3.58270895,10.4384507 3.58270895,13.7591813 L3.58270895,16.716494 C3.58270895,17.175309 3.95432336,17.5469038 4.41337644,17.5469038 C4.87425117,17.5469038 5.24768721,17.175309 5.24768721,16.716494 L5.24768721,13.7591813 C5.24768721,10.7146483 6.03918946,8.62317861 7.41452707,7.31578292 C7.74697623,6.99960939 7.77885492,6.45902535 7.46188969,6.12558948 C7.29885298,5.952966 7.07934546,5.86574572 6.85892711,5.86574572 C6.76511269,5.86574572 6.67403073,5.88028243 6.5847704,5.91208149 C6.61755991,5.86847135 6.64579532,5.82213558 6.67038745,5.77125708 C7.97650278,3.06288559 10.1506292,1.68916614 13.1299202,1.68916614 L13.1854802,1.68916614 L13.1854802,3.91419189 C12.9805457,3.90783208 12.7756113,3.9041979 12.575231,3.9041979 L12.5570146,3.9041979 C12.0979615,3.9041979 11.7245255,4.27670119 11.7263471,4.73460768 C11.7263471,5.19433125 12.0997832,5.56501745 12.5588363,5.56501745 C13.2811162,5.56501745 14.0726185,5.62043867 14.8504584,5.73037257 L14.8504584,0.194610256 C14.5726584,0.13828049 13.8503785,0.0283465919 13.1299202,0.0283465919" id="Fill-459" fill="#1A1918"></path>
                        <path d="M5.15851797,0.470262691 L0.0296927194,0.470262691 L0.0296927194,6.15230069 C0.0296927194,6.61111572 0.401307122,6.98271046 0.860360208,6.98271046 C1.32123493,6.98271046 1.69284934,6.61111572 1.69284934,6.15230069 L1.69284934,2.13289933 L5.15851797,2.13289933 L5.15851797,0.470262691 L5.15851797,0.470262691 Z" id="Fill-486" fill="#DD3B41"></path>
                    </g>
                    <g id="Group-7" transform="translate(153.017695, 7.268357)">
                        <path d="M26.1269517,12.674379 C25.8081649,8.94207777 24.4619735,5.86756281 22.222268,3.73702569 C22.0601422,3.58620729 21.8561186,3.50988954 21.6493625,3.50988954 C21.4307658,3.50988954 21.2103475,3.59710982 21.0463999,3.76882476 C20.7294347,4.10135208 20.7421862,4.62739941 21.076457,4.94266439 C23.0046621,6.77065615 24.1787086,9.49447289 24.46926,12.8188376 C24.5066036,13.2503963 24.8691098,13.5765638 25.2981059,13.5765638 C25.3208764,13.5765638 25.3463793,13.5756553 25.3709715,13.5738382 C25.8282029,13.5338622 26.1679386,13.131377 26.1269517,12.674379" id="Fill-460" fill="#1A1918"></path>
                        <path d="M4.48068601,4.44514536 C4.16372079,4.77767269 4.1782939,5.30190293 4.5125647,5.61807646 C4.67286895,5.77071195 4.879625,5.84612115 5.08547024,5.84612115 C5.30588858,5.84612115 5.52630693,5.75980942 5.69025446,5.58809448 C7.76419072,3.40940451 10.4957387,2.21012562 13.3821261,2.21012562 C13.8430008,2.21012562 14.2155261,1.83853087 14.2155261,1.3788073 C14.2155261,0.920900818 13.8430008,0.549306072 13.3821261,0.549306072 C10.0239342,0.549306072 6.83242226,1.97390402 4.48068601,4.44514536" id="Fill-474" fill="#1A1918"></path>
                        <path d="M2.90815595,22.9735499 C3.06663856,23.2197655 3.33533035,23.3533215 3.60766541,23.3533215 C3.76250475,23.3533215 3.9182549,23.3106199 4.05943194,23.2215826 C4.44561946,22.9717328 4.55582863,22.4593136 4.30626406,22.0731822 C2.96371594,19.9980663 2.28060123,17.4877575 2.28060123,14.6131224 C2.28060123,14.2578814 2.29244189,13.8999149 2.31794484,13.5510337 C2.34982352,13.0931272 2.00280125,12.6960932 1.54374817,12.6652027 C1.52371013,12.6633856 1.50458292,12.6624771 1.48636653,12.6624771 C1.05281639,12.6624771 0.686666908,12.9986386 0.655699041,13.4356486 C0.629285272,13.82178 0.614712158,14.2142713 0.614712158,14.6131224 C0.614712158,17.9529324 1.46359604,20.7521583 2.90815595,22.9735499" id="Fill-475" fill="#009D49"></path>
                        <path d="M25.171593,22.4829358 C25.0222186,22.7627675 24.7353104,22.9199458 24.4365616,22.9199458 C24.3054036,22.9199458 24.1715131,22.8881467 24.0476416,22.8227315 C23.6414161,22.6092235 23.4865768,22.1049812 23.7042626,21.7006789 C23.7516253,21.610733 23.7980771,21.5198785 23.8445289,21.4281155 L22.4801211,20.9574894 C22.1923021,21.530781 21.864407,22.0586455 21.4964359,22.5356314 C21.3324884,22.7482308 21.0856562,22.8599818 20.8360917,22.8599818 C20.6584818,22.8599818 20.480872,22.803652 20.329676,22.6882669 C19.9644373,22.4084351 19.895215,21.8878391 20.1766583,21.5235127 C20.7258825,20.8084881 21.1457703,19.9898894 21.4609139,19.1140524 C21.4891493,19.035009 21.5155631,18.9559656 21.5428877,18.8769222 L26.0396041,20.4268993 C25.8137209,21.1391983 25.5222586,21.8269666 25.171593,22.4829358" id="Fill-476" fill="#DD3B41"></path>
                        <path d="M6.55316496,19.1353123 C6.42838268,18.8009679 6.11050663,18.5947283 5.77441419,18.5947283 C5.67786731,18.5947283 5.58040962,18.6119906 5.48386274,18.6474239 C5.05395588,18.8064192 4.83262671,19.2843136 4.99293096,19.7140552 C6.41472038,23.5344853 9.88312148,25.9085124 14.0492104,25.9085124 C14.1667061,25.9085124 14.2842019,25.9066953 14.3998759,25.9048782 C14.858929,25.8930671 15.2223461,25.5096613 15.2095946,25.0517548 C15.1968431,24.6011167 14.8270503,24.2422416 14.3771055,24.2422416 L14.3771055,24.2440587 C14.2787369,24.2458758 14.1512222,24.2476929 14.0492104,24.2476929 C10.5625929,24.2476929 7.71081669,22.2516203 6.55316496,19.1353123" id="Fill-477" fill="#1A1918"></path>
                        <path d="M22.9390831,14.5020982 L12.9464811,14.5020982 C12.4856064,14.5020982 12.113992,14.873693 12.113992,15.332508 C12.113992,15.7922316 12.4856064,16.1638263 12.9464811,16.1638263 L22.9390831,16.1638263 C23.3981362,16.1638263 23.7697506,15.7922316 23.7697506,15.332508 C23.7697506,14.873693 23.3981362,14.5020982 22.9390831,14.5020982" id="Fill-478" fill="#0079B3"></path>
                        <path d="M16.0100229,11.9548117 L20.7654121,11.9548117 C20.7098521,10.0713987 20.0895839,8.40421936 18.8936778,7.18222686 C18.5730693,6.85333371 18.5803558,6.32728638 18.9118942,6.00747868 C19.0731092,5.851209 19.2816869,5.77216562 19.4911754,5.77216562 C19.7088613,5.77216562 19.9256364,5.85756882 20.0895839,6.02564957 C21.5514494,7.53019945 22.361168,9.56352229 22.4303903,11.9075674 C22.4431418,12.3554799 22.2737294,12.7915813 21.9604074,13.1132061 C21.6461746,13.4348309 21.215357,13.6165398 20.7654121,13.6165398 L16.0327934,13.6165398 C15.5728294,13.6165398 15.2003042,13.2440365 15.2003042,12.78613 C15.2003042,12.327315 15.5491481,11.9548117 16.0100229,11.9548117" id="Fill-487" fill="#1A1918"></path>
                        <path d="M12.6994668,3.51352372 C13.1266412,3.51352372 13.4909691,3.84241687 13.526491,4.27579265 C13.5638346,4.73369913 13.2240989,5.13436731 12.7650458,5.17161764 C8.91956541,5.48960825 6.54232621,8.48962255 6.19530394,11.6259186 C6.14794132,12.0493003 5.78998921,12.3409432 5.37192301,12.3409432 C5.34004432,12.3409432 5.30816563,12.3391261 5.27810859,12.3345833 C4.82087714,12.2837049 4.49116044,11.8721341 4.54307716,11.4160447 C5.03036565,7.11408601 8.42499035,3.8633134 12.6994668,3.51352372" id="Fill-488" fill="#1A1918"></path>
                    </g>
                    <g id="Group-6" transform="translate(118.406550, 7.268357)">
                        <path d="M13.3719249,0.549215217 L13.3646384,0.549215217 L13.3609951,0.549215217 C12.901942,0.549215217 12.528506,0.920809963 12.5303276,1.37962499 C12.5303276,1.83844002 12.9037636,2.21003477 13.3628167,2.21003477 L13.3719249,2.21003477 C13.8327997,2.20912622 14.2062357,1.83753148 14.2062357,1.37871645 C14.2062357,0.920809963 13.8327997,0.549215217 13.3737466,0.549215217 L13.3719249,0.549215217 L13.3719249,0.549215217 Z" id="Fill-479" fill="#DD3B41"></path>
                        <path d="M2.30510228,13.5997317 C2.51823407,10.4770639 3.68772646,7.68419776 5.6724024,5.59363661 C5.98936762,5.26110928 5.97479451,4.73597049 5.64234535,4.41979697 C5.48021946,4.26807002 5.27437423,4.19266082 5.06943981,4.19266082 C4.84902147,4.19266082 4.62860312,4.27897255 4.46465559,4.45159603 C2.33333769,6.69570122 0.886956141,9.80746651 0.643767304,13.4879807 C0.611888617,13.9449787 0.958000071,14.3429212 1.41705316,14.3738117 C1.43709119,14.3747203 1.4562184,14.3756288 1.47443479,14.3756288 C1.90798493,14.3756288 2.27504523,14.0385588 2.30510228,13.5997317" id="Fill-480" fill="#1A1918"></path>
                        <path d="M2.97218657,23.0818484 C4.86669137,25.9846484 7.70389447,27.8035548 10.9937749,28.5185794 C11.0520674,28.531299 11.1231113,28.5403844 11.1823146,28.5403844 C11.5648588,28.5403844 11.9100594,28.2741809 11.992944,27.8871409 C12.0913125,27.4383198 11.806226,26.99495 11.3581028,26.8968272 C8.43528262,26.2526691 5.95876408,24.6118375 4.3666514,22.176938 C4.20816878,21.9316309 3.94129864,21.799892 3.66987439,21.799892 C3.51321342,21.799892 3.35655244,21.8425936 3.21628622,21.933448 C2.83192035,22.1851149 2.72171117,22.6966255 2.97218657,23.0818484" id="Fill-481" fill="#1A1918"></path>
                        <path d="M6.96412677,22.9292129 C8.76117387,24.8262541 11.2978065,25.9083307 14.0393735,25.9083307 C15.5404043,25.9083307 16.9066337,25.6530297 18.1025398,25.1506045 C18.5251601,24.9734383 18.7246296,24.4855498 18.5451982,24.0630766 C18.4113077,23.745086 18.1025398,23.5552002 17.7782881,23.5552002 C17.6699005,23.5552002 17.561513,23.5751881 17.4567687,23.6215239 C16.5049622,24.0185579 15.3709918,24.2475111 14.0393735,24.2475111 C11.6894589,24.2475111 9.62918497,23.3407836 8.17916014,21.7953492 C8.01521261,21.6218172 7.79297262,21.5327798 7.57073264,21.5327798 C7.36761986,21.5327798 7.16177463,21.6072805 7.00147038,21.7562818 C6.66719958,22.0697297 6.64898319,22.5948685 6.96412677,22.9292129" id="Fill-482" fill="#1A1918"></path>
                        <path d="M19.82408,16.1639172 C20.2831331,16.1639172 20.6565691,15.7923224 20.6565691,15.3325989 C20.6565691,14.8737838 20.2831331,14.5021891 19.82408,14.5021891 L9.78866948,14.5021891 C9.32870558,14.5021891 8.95618035,14.8737838 8.95618035,15.3325989 C8.95618035,15.7923224 9.32870558,16.1639172 9.78866948,16.1639172 L19.82408,16.1639172 L19.82408,16.1639172 Z" id="Fill-483" fill="#1A1918"></path>
                        <path d="M26.0967125,12.4489691 C25.7287414,8.7257533 24.3215251,5.64124434 22.0162406,3.55613446 C21.857758,3.41167587 21.6564669,3.34171793 21.4569974,3.34171793 C21.2311141,3.34171793 21.0052309,3.43348094 20.8403725,3.61428132 C20.5325155,3.95498555 20.5589293,4.48012433 20.898665,4.78812095 C22.8715003,6.57886238 24.1111258,9.30086204 24.4390208,12.6125071 C24.483651,13.0413402 24.8443356,13.3620564 25.2678667,13.3620564 C25.2942804,13.3620564 25.3225158,13.3602394 25.3498404,13.3575137 C25.8070719,13.312995 26.1431643,12.9059671 26.0967125,12.4489691" id="Fill-484" fill="#009D49"></path>
                        <path d="M20.7563039,11.9548117 L20.7563039,11.9548117 L12.3366874,11.9548117 C11.8776343,11.9548117 11.5041982,12.327315 11.5041982,12.78613 C11.5041982,13.2440365 11.8776343,13.6165398 12.3366874,13.6165398 L20.7563039,13.6165398 C21.2044271,13.6165398 21.6370664,13.4348309 21.9503884,13.1132061 C22.2646212,12.7915813 22.4340336,12.3554799 22.4194605,11.9075674 C22.4021549,11.2497811 22.3220028,10.6065315 22.1826474,9.99326389 C22.0961195,9.60713243 21.7527405,9.34456303 21.3720179,9.34456303 C21.310993,9.34456303 21.2490573,9.35183139 21.1889432,9.36455102 C20.7399091,9.46630801 20.457555,9.90876924 20.558656,10.3557732 C20.6615786,10.8191309 20.7544822,11.4360327 20.7563039,11.9548117" id="Fill-485" fill="#0079B3"></path>
                        <path d="M13.0320981,3.49489856 C13.4747565,3.49489856 13.8436384,3.84105405 13.8627656,4.28624091 C13.8828037,4.7441474 13.5266732,5.13209594 13.0676201,5.15208393 C9.15018493,5.32107322 6.68823951,8.21933053 6.22189987,11.3374556 C6.15996414,11.7490263 5.80565531,12.0452119 5.40034058,12.0452119 C5.3593537,12.0452119 5.31654517,12.0415777 5.27555829,12.0343094 C4.82197012,11.9670771 4.50773736,11.5436953 4.57695965,11.09124 C5.21726584,6.8256231 8.6984184,3.70295527 13.0320981,3.49489856" id="Fill-489" fill="#1A1918"></path>
                        <path d="M19.8383799,25.7080875 C21.7738715,24.5814921 23.4944098,22.6899023 24.5509606,19.9179327 L26.0292208,20.4267176 C25.1484582,23.193236 23.3076918,25.6154159 20.6763339,27.1435879 C20.5442651,27.2199057 20.4003556,27.2553389 20.2582677,27.2553389 C19.9713595,27.2553389 19.6926487,27.1081547 19.5378094,26.8419511 C19.3064612,26.4467342 19.4412625,25.9370407 19.8383799,25.7080875" id="Fill-490" fill="#1A1918"></path>
                    </g>
                </g>
            </g>
        </g>
    </g>
</svg>