<?xml version="1.0" encoding="utf-8"?>
<!-- Generator: Adobe Illustrator 16.0.0, SVG Export Plug-In . SVG Version: 6.00 Build 0)  -->
<!DOCTYPE svg PUBLIC "-//W3C//DTD SVG 1.1//EN" "http://www.w3.org/Graphics/SVG/1.1/DTD/svg11.dtd">
<svg version="1.1" id="Layer_1" xmlns="http://www.w3.org/2000/svg" xmlns:xlink="http://www.w3.org/1999/xlink" x="0px" y="0px"
	 width="841.89px" height="595.28px" viewBox="0 0 841.89 595.28" enable-background="new 0 0 841.89 595.28" xml:space="preserve">
<g>
	<path fill="#FF3333" d="M562.674,297.638c0,78.278-63.451,141.735-141.728,141.735c-78.27,0-141.73-63.457-141.73-141.735
		c0-78.279,63.461-141.73,141.73-141.73C499.223,155.907,562.674,219.358,562.674,297.638z"/>
</g>
<g>
	<g>
		<path fill="#FFFFFF" d="M437.463,211.11H399.23c-3.521,0-6.375,2.867-6.375,6.361v0.018v135.176c0,3.511,2.854,6.362,6.375,6.362
			v0.021h38.249v-0.021c3.526,0,6.361-2.852,6.361-6.362V217.489C443.841,213.977,440.99,211.11,437.463,211.11z"/>
		<path fill="#FFFFFF" d="M356.724,359.048h3.399h7.149h8.793c3.515,0,6.365-2.872,6.365-6.372v-0.011v-99.392
			c0-3.531-2.85-6.365-6.365-6.365l0,0h-8.793l0,0h-10.549c-14.053,0-25.485,11.433-25.485,25.494v61.153
			C331.239,347.615,342.671,359.048,356.724,359.048z"/>
		<path fill="#FFFFFF" d="M485.162,308.039c-14.049,0-25.499,11.456-25.499,25.5c0,14.059,11.45,25.488,25.499,25.488
			c14.05,0,25.488-11.43,25.488-25.488C510.65,319.495,499.212,308.039,485.162,308.039z"/>
	</g>
</g>
</svg>
