<?xml version="1.0" encoding="utf-8"?>
<!-- Generator: Adobe Illustrator 16.0.0, SVG Export Plug-In . SVG Version: 6.00 Build 0)  -->
<!DOCTYPE svg PUBLIC "-//W3C//DTD SVG 1.1//EN" "http://www.w3.org/Graphics/SVG/1.1/DTD/svg11.dtd">
<svg version="1.1" id="Layer_1" xmlns="http://www.w3.org/2000/svg" xmlns:xlink="http://www.w3.org/1999/xlink" x="0px" y="0px"
	 width="1000.905px" height="595.28px" viewBox="0 0 1000.905 595.28" enable-background="new 0 0 1000.905 595.28"
	 xml:space="preserve">
<g>
	<g>
		<path fill="#FF3333" d="M235.76,302.23c0,3.24-0.36,6.193-1.225,8.785c-2.016,6.119-6.624,10.08-13.896,10.08
			c-3.457,0-6.193-1.295-8.209-3.672c-0.216-0.217-0.433-0.072-0.433,0.217v15.625c0,0.504-0.359,0.863-0.863,0.863h-6.625
			c-0.504,0-0.864-0.359-0.864-0.863v-48.676c0-0.505,0.36-0.864,0.864-0.864h6.625c0.504,0,0.863,0.359,0.863,0.864v2.16
			c0,0.288,0.217,0.432,0.433,0.144c2.016-2.376,4.824-3.744,8.28-3.744c6.913,0,11.665,3.816,13.754,10.081
			C235.399,295.894,235.76,298.918,235.76,302.23z M227.263,302.086c0-3.456-0.576-6.264-1.729-8.28
			c-1.296-2.305-3.384-3.528-6.12-3.528c-2.521,0-4.393,1.224-5.616,3.456c-1.152,1.944-1.656,4.896-1.656,8.352
			c0,3.744,0.576,6.625,1.8,8.641c1.225,2.088,3.024,3.168,5.4,3.168c2.521,0,4.465-1.008,5.761-3.023
			C226.471,308.783,227.263,305.83,227.263,302.086z"/>
		<path fill="#FF3333" d="M241.948,310.223c-0.72-2.305-1.224-5.328-1.224-8.209c0-2.951,0.432-5.976,1.151-8.208
			c2.232-6.697,7.921-10.657,15.626-10.657c7.345,0,12.889,3.96,15.121,10.585c0.864,2.304,1.296,5.329,1.296,8.209
			c0,2.951-0.432,5.832-1.224,8.207c-2.16,6.842-7.849,10.945-15.266,10.945C249.869,321.096,244.108,316.992,241.948,310.223z
			 M264.774,308.135c0.504-1.656,0.72-3.889,0.72-6.049c0-2.375-0.216-4.536-0.72-6.048c-1.08-3.6-3.744-5.688-7.489-5.688
			c-3.6,0-6.264,2.089-7.416,5.688c-0.433,1.513-0.721,3.673-0.721,6.048c0,2.232,0.288,4.537,0.721,6.049
			c1.08,3.6,3.816,5.76,7.561,5.76C260.958,313.895,263.622,311.734,264.774,308.135z"/>
		<path fill="#FF3333" d="M286.013,319.801l-10.297-35.14c-0.144-0.576,0.145-1.008,0.72-1.008h6.841
			c0.504,0,0.864,0.216,1.008,0.72l5.977,24.051c0.072,0.287,0.36,0.287,0.433,0l6.265-24.051c0.144-0.504,0.504-0.72,1.008-0.72
			h5.977c0.504,0,0.864,0.216,1.008,0.72l6.409,24.051c0.071,0.287,0.359,0.287,0.432,0l6.408-24.051
			c0.145-0.504,0.505-0.72,1.009-0.72l6.769,0.144c0.576,0,0.864,0.36,0.72,0.937l-10.369,35.068
			c-0.144,0.432-0.432,0.719-0.936,0.719h-6.913c-0.504,0-0.864-0.287-1.008-0.719l-6.337-21.962c-0.071-0.288-0.359-0.288-0.432,0
			l-5.833,21.962c-0.144,0.504-0.504,0.719-1.008,0.719h-6.841C286.517,320.52,286.157,320.232,286.013,319.801z"/>
		<path fill="#FF3333" d="M360.679,304.246c0,0.576-0.359,0.865-0.864,0.865h-22.537c-0.217,0-0.36,0.143-0.36,0.359
			c0.144,1.367,0.288,2.447,0.648,3.24c1.08,3.24,3.815,5.184,8.424,5.256c3.528,0,6.049-1.584,7.777-4.031
			c0.359-0.504,0.792-0.576,1.224-0.217l4.465,3.672c0.432,0.361,0.504,0.721,0.216,1.152c-3.024,4.248-8.28,6.697-14.474,6.625
			c-7.488-0.145-12.601-3.672-14.977-9.576c-1.152-2.664-1.656-5.904-1.656-9.721c-0.072-2.953,0.144-5.617,0.864-7.849
			c1.943-6.625,7.488-10.873,15.049-10.873c10.153,0,14.905,5.761,15.985,14.833C360.751,299.998,360.751,301.943,360.679,304.246z
			 M337.565,295.39c-0.36,0.936-0.505,1.944-0.576,3.168c-0.072,0.216,0.071,0.36,0.288,0.36h14.617c0.216,0,0.359-0.145,0.359-0.36
			c-0.071-1.08-0.216-2.088-0.432-2.736c-0.864-3.384-3.456-5.473-7.345-5.473C340.806,290.349,338.501,292.293,337.565,295.39z"/>
		<path fill="#FF3333" d="M387.82,284.229c0.433,0.216,0.505,0.647,0.433,1.08l-1.225,6.48c-0.071,0.576-0.432,0.72-1.008,0.504
			c-0.936-0.36-2.376-0.504-3.96-0.288c-3.889,0.216-7.057,2.881-7.057,7.272v20.379c0,0.504-0.36,0.863-0.864,0.863h-6.625
			c-0.504,0-0.863-0.359-0.863-0.863v-35.067c0-0.505,0.359-0.864,0.863-0.864h6.625c0.504,0,0.864,0.359,0.864,0.864v3.24
			c0,0.359,0.216,0.432,0.359,0.144c1.872-2.88,4.608-4.681,8.425-4.681C385.66,283.292,386.885,283.725,387.82,284.229z"/>
		<path fill="#FF3333" d="M422.525,304.246c0,0.576-0.359,0.865-0.864,0.865h-22.537c-0.217,0-0.36,0.143-0.36,0.359
			c0.144,1.367,0.288,2.447,0.648,3.24c1.08,3.24,3.815,5.184,8.424,5.256c3.528,0,6.049-1.584,7.777-4.031
			c0.359-0.504,0.792-0.576,1.224-0.217l4.465,3.672c0.432,0.361,0.504,0.721,0.216,1.152c-3.024,4.248-8.28,6.697-14.474,6.625
			c-7.488-0.145-12.601-3.672-14.977-9.576c-1.152-2.664-1.656-5.904-1.656-9.721c-0.072-2.953,0.144-5.617,0.864-7.849
			c1.943-6.625,7.488-10.873,15.049-10.873c10.153,0,14.905,5.761,15.985,14.833C422.598,299.998,422.598,301.943,422.525,304.246z
			 M399.412,295.39c-0.36,0.936-0.505,1.944-0.576,3.168c-0.072,0.216,0.071,0.36,0.288,0.36h14.617c0.216,0,0.359-0.145,0.359-0.36
			c-0.071-1.08-0.216-2.088-0.432-2.736c-0.864-3.384-3.456-5.473-7.345-5.473C402.652,290.349,400.348,292.293,399.412,295.39z"/>
		<path fill="#FF3333" d="M452.188,270.116h6.625c0.504,0,0.864,0.36,0.864,0.864v48.676c0,0.504-0.36,0.863-0.864,0.863h-6.625
			c-0.504,0-0.864-0.359-0.864-0.863v-2.16c0-0.289-0.216-0.432-0.432-0.145c-2.017,2.377-4.824,3.744-8.281,3.744
			c-6.912,0-11.664-3.816-13.753-10.08c-0.864-2.664-1.296-5.689-1.296-9.002c0-3.24,0.36-6.192,1.224-8.784
			c2.017-6.121,6.625-10.081,13.97-10.081c3.384,0,6.12,1.296,8.137,3.601c0.216,0.216,0.432,0.144,0.432-0.145V270.98
			C451.323,270.476,451.684,270.116,452.188,270.116z M451.252,302.086c0-3.671-0.576-6.552-1.801-8.568
			c-1.296-2.089-3.096-3.169-5.473-3.169c-2.52,0-4.392,1.009-5.76,3.024c-1.368,2.017-2.16,4.969-2.16,8.785
			c0,3.457,0.647,6.266,1.728,8.281c1.296,2.232,3.385,3.455,6.121,3.455c2.52,0,4.392-1.223,5.688-3.455
			C450.676,308.494,451.252,305.615,451.252,302.086z"/>
		<path fill="#FF3333" d="M511.948,302.014c0,3.312-0.433,6.338-1.368,9.002c-2.089,6.264-6.841,10.08-13.754,10.08
			c-3.456,0-6.265-1.439-8.28-3.816c-0.216-0.287-0.433-0.145-0.433,0.145v2.232c0,0.504-0.359,0.863-0.863,0.863h-6.625
			c-0.504,0-0.864-0.359-0.864-0.863V270.98c0-0.504,0.36-0.864,0.864-0.864h6.625c0.504,0,0.863,0.36,0.863,0.864v15.625
			c0,0.288,0.217,0.433,0.433,0.216c2.016-2.376,4.752-3.672,8.209-3.672c7.272,0,11.881,3.96,13.969,10.081
			C511.516,295.822,511.948,298.774,511.948,302.014z M503.379,302.158c0-3.816-0.792-6.768-2.16-8.785
			c-1.296-2.016-3.24-3.024-5.761-3.024c-2.376,0-4.176,1.08-5.4,3.169c-1.224,2.016-1.8,4.896-1.8,8.568
			c0,3.529,0.504,6.408,1.656,8.354c1.224,2.232,3.096,3.455,5.616,3.455c2.736,0,4.896-1.223,6.121-3.455
			C502.803,308.424,503.379,305.615,503.379,302.158z"/>
		<path fill="#FF3333" d="M515.688,333.984v-5.184c0-0.504,0.216-0.863,0.504-0.863h0.433c5.544-0.072,7.632-1.225,9.288-7.201
			c0.072-0.145,0.072-0.217,0-0.432l-11.881-35.644c-0.216-0.647,0.072-1.008,0.648-1.008h7.057c0.504,0,0.864,0.288,1.008,0.72
			l7.2,25.346c0.072,0.289,0.36,0.289,0.433,0l7.2-25.346c0.145-0.432,0.504-0.72,1.009-0.72h6.84c0.576,0,0.864,0.36,0.648,1.008
			l-12.673,37.876c-3.312,9.504-5.833,12.312-16.706,12.312h-0.504C515.904,334.85,515.688,334.488,515.688,333.984z"/>
	</g>
	<g>
		<g>
			<path fill="#FF3333" d="M575.894,258.921c0-0.018-0.002-0.031-0.002-0.044c0-17.847,14.467-32.314,32.314-32.314h25.852
				c3.568,0,6.463,2.895,6.463,6.461v129.244c0,3.571-2.895,6.461-6.463,6.461h-25.852c-17.848,0-32.314-14.467-32.314-32.31
				c0-0.018,0.002-0.031,0.002-0.045V258.921z"/>
			<path fill="#FF3333" d="M718.071,362.268c0,3.571-2.895,6.461-6.463,6.461h-51.699c-3.57,0-6.465-2.89-6.465-6.461V187.893
				c0-3.566,2.895-6.461,6.465-6.461h51.699c3.568,0,6.463,2.895,6.463,6.461V362.268z"/>
		</g>
		<g>
			<circle fill="#FF3333" cx="769.771" cy="336.428" r="32.313"/>
		</g>
	</g>
</g>
</svg>
